<?xml version="1.0" encoding="iso-8859-1"?>
<!-- Generator: Adobe Illustrator 24.2.3, SVG Export Plug-In . SVG Version: 6.00 Build 0)  -->
<svg version="1.1" id="Layer_1" xmlns="http://www.w3.org/2000/svg" xmlns:xlink="http://www.w3.org/1999/xlink" x="0px" y="0px"
	 viewBox="0 0 48 48" style="enable-background:new 0 0 48 48;" xml:space="preserve">
<radialGradient id="SVGID_1_" cx="24" cy="18.4348" r="40.7353" gradientUnits="userSpaceOnUse">
	<stop  offset="0" style="stop-color:#DFE9F2"/>
	<stop  offset="0.5426" style="stop-color:#D6E0E9"/>
	<stop  offset="1" style="stop-color:#BFC8D1"/>
</radialGradient>
<path style="fill:url(#SVGID_1_);" d="M44,24c0,4.37-1.4,8.41-3.79,11.7c-0.66,0.93-1.41,1.8-2.23,2.59C34.37,41.82,29.44,44,24,44
	s-10.37-2.18-13.98-5.71C9.2,37.5,8.45,36.63,7.79,35.7C5.4,32.41,4,28.37,4,24c0-5.69,2.37-10.81,6.18-14.45
	c1-0.96,2.1-1.81,3.28-2.54C16.52,5.1,20.13,4,24,4s7.48,1.1,10.54,3.01c1.18,0.73,2.28,1.58,3.28,2.54C41.63,13.19,44,18.31,44,24z
	"/>
<radialGradient id="SVGID_2_" cx="23.8913" cy="14.7174" r="19.7901" gradientUnits="userSpaceOnUse">
	<stop  offset="0" style="stop-color:#4CAF50"/>
	<stop  offset="0.489" style="stop-color:#4AAF50"/>
	<stop  offset="0.665" style="stop-color:#43AD50"/>
	<stop  offset="0.79" style="stop-color:#38AA50"/>
	<stop  offset="0.892" style="stop-color:#27A550"/>
	<stop  offset="0.978" style="stop-color:#11A050"/>
	<stop  offset="1" style="stop-color:#0A9E50"/>
</radialGradient>
<path style="fill:url(#SVGID_2_);" d="M40.21,35.7c-0.66,0.93-1.41,1.8-2.23,2.59c-0.07-0.61-0.31-2.47-0.98-3.79
	c-1.5-3-8-11-13-14.5c-5,3.5-11.5,11.5-13,14.5c-0.67,1.32-0.91,3.18-0.98,3.79C9.2,37.5,8.45,36.63,7.79,35.7
	C7.76,35.08,7.8,34.2,8,33c0.74-4.47,8.5-16,11-18c-3.4-3.4-6.8-4.91-8.82-5.45c1-0.96,2.1-1.81,3.28-2.54
	C19.15,7.1,22.05,9.03,24,10c1.95-0.97,4.85-2.9,10.54-2.99c1.18,0.73,2.28,1.58,3.28,2.54C35.8,10.09,32.4,11.6,29,15
	c2.5,2,10.26,13.53,11,18C40.2,34.2,40.24,35.08,40.21,35.7z"/>
</svg>